<?xml version="1.0" encoding="UTF-8" standalone="no"?>
<!-- Created with Inkscape (http://www.inkscape.org/) -->
<svg
   xmlns:dc="http://purl.org/dc/elements/1.1/"
   xmlns:cc="http://web.resource.org/cc/"
   xmlns:rdf="http://www.w3.org/1999/02/22-rdf-syntax-ns#"
   xmlns:svg="http://www.w3.org/2000/svg"
   xmlns="http://www.w3.org/2000/svg"
   xmlns:sodipodi="http://sodipodi.sourceforge.net/DTD/sodipodi-0.dtd"
   xmlns:inkscape="http://www.inkscape.org/namespaces/inkscape"
   width="449.6955"
   height="718.2561"
   id="svg2"
   inkscape:label="Pozadí"
   sodipodi:version="0.32"
   inkscape:version="0.44"
   sodipodi:docbase="C:\Documents and Settings\Zuzik\Plocha\15.Cinnosti"
   sodipodi:docname="zveda ciky.svg"
   version="1.0">
  <defs
     id="defs3" />
  <sodipodi:namedview
     id="base"
     pagecolor="#ffffff"
     bordercolor="#666666"
     borderopacity="1.0"
     inkscape:pageopacity="0.0"
     inkscape:pageshadow="2"
     inkscape:zoom="0.49032549"
     inkscape:cx="372.04724"
     inkscape:cy="526.18109"
     inkscape:document-units="px"
     inkscape:current-layer="layer1"
     inkscape:window-width="1024"
     inkscape:window-height="712"
     inkscape:window-x="-4"
     inkscape:window-y="-4" />
  <metadata
     id="metadata6">
    <rdf:RDF>
      <cc:Work
         rdf:about="">
        <dc:format>image/svg+xml</dc:format>
        <dc:type
           rdf:resource="http://purl.org/dc/dcmitype/StillImage" />
        <dc:title>zveda cinky</dc:title>
        <dc:date>27.11.2006</dc:date>
        <dc:creator>
          <cc:Agent>
            <dc:title>Petra Thurlova</dc:title>
          </cc:Agent>
        </dc:creator>
        <dc:publisher>
          <cc:Agent>
            <dc:title>ZS a MS Machovo namesti</dc:title>
          </cc:Agent>
        </dc:publisher>
        <dc:language>cz</dc:language>
        <dc:subject>
          <rdf:Bag>
            <rdf:li>zveda cinky</rdf:li>
          </rdf:Bag>
        </dc:subject>
        <cc:license
           rdf:resource="http://web.resource.org/cc/PublicDomain" />
      </cc:Work>
      <cc:License
         rdf:about="http://web.resource.org/cc/PublicDomain">
        <cc:permits
           rdf:resource="http://web.resource.org/cc/Reproduction" />
        <cc:permits
           rdf:resource="http://web.resource.org/cc/Distribution" />
        <cc:permits
           rdf:resource="http://web.resource.org/cc/DerivativeWorks" />
      </cc:License>
    </rdf:RDF>
  </metadata>
  <g
     inkscape:label="Vrstva 1"
     inkscape:groupmode="layer"
     id="layer1"
     transform="translate(-168.1997,-175.8054)">
    <g
       id="g4491"
       inkscape:export-filename="/media/KINGSTON/inkscape/8.b/Petra Thurlova/svg 3/Prace svg/cinnost/zveda cinky.png"
       inkscape:export-xdpi="90"
       inkscape:export-ydpi="90">
      <g
         transform="matrix(0.99093,0.134377,-0.134377,0.99093,89.4492,-50.84005)"
         id="g4366">
        <path
           inkscape:transform-center-y="-85.505741"
           inkscape:transform-center-x="237.86864"
           transform="matrix(1.048239,-0.199175,0.22512,0.740575,520.9535,341.0749)"
           d="M -179.47263 459.89859 A 26.513 215.16319 0 1 1  -232.49863,459.89859 A 26.513 215.16319 0 1 1  -179.47263 459.89859 z"
           sodipodi:ry="215.16319"
           sodipodi:rx="26.513"
           sodipodi:cy="459.89859"
           sodipodi:cx="-205.98563"
           id="path3852"
           style="fill:#2d81cc;fill-opacity:1;fill-rule:nonzero;stroke:#130e08;stroke-width:0.5;stroke-miterlimit:4;stroke-dasharray:none;stroke-opacity:1"
           sodipodi:type="arc" />
        <path
           transform="matrix(-0.910484,-2.288216e-2,-2.083931e-2,0.999738,118.2786,470.0722)"
           d="M -360.9847 389.53717 A 34.670849 20.394615 0 1 1  -430.3264,389.53717 A 34.670849 20.394615 0 1 1  -360.9847 389.53717 z"
           sodipodi:ry="20.394615"
           sodipodi:rx="34.670849"
           sodipodi:cy="389.53717"
           sodipodi:cx="-395.65555"
           id="path3925"
           style="fill:#00d4aa;fill-opacity:1;fill-rule:nonzero;stroke:#130e08;stroke-width:0.5;stroke-miterlimit:4;stroke-dasharray:none;stroke-opacity:1"
           sodipodi:type="arc" />
      </g>
      <g
         transform="matrix(0.982814,-0.184597,0.184597,0.982814,-111.9602,66.8284)"
         id="g4362">
        <path
           sodipodi:type="arc"
           style="fill:#2d81cc;fill-opacity:1;fill-rule:nonzero;stroke:#130e08;stroke-width:0.5;stroke-miterlimit:4;stroke-dasharray:none;stroke-opacity:1"
           id="path2963"
           sodipodi:cx="-205.98563"
           sodipodi:cy="459.89859"
           sodipodi:rx="26.513"
           sodipodi:ry="215.16319"
           d="M -179.47263 459.89859 A 26.513 215.16319 0 1 1  -232.49863,459.89859 A 26.513 215.16319 0 1 1  -179.47263 459.89859 z"
           transform="matrix(-0.998934,-0.365447,-0.328013,0.691367,255.4658,335.5854)"
           inkscape:transform-center-x="-225.42474"
           inkscape:transform-center-y="-110.26965" />
        <path
           sodipodi:type="arc"
           style="fill:#00d4aa;fill-opacity:1;fill-rule:nonzero;stroke:#130e08;stroke-width:0.5;stroke-miterlimit:4;stroke-dasharray:none;stroke-opacity:1"
           id="path3923"
           sodipodi:cx="-395.65555"
           sodipodi:cy="389.53717"
           sodipodi:rx="34.670849"
           sodipodi:ry="20.394615"
           d="M -360.9847 389.53717 A 34.670849 20.394615 0 1 1  -430.3264,389.53717 A 34.670849 20.394615 0 1 1  -360.9847 389.53717 z"
           transform="matrix(-0.910484,-2.288216e-2,-2.083931e-2,0.999738,-118.4472,464.1228)" />
      </g>
      <path
         sodipodi:nodetypes="csssssssc"
         id="path2069"
         d="M 316.10755,510.91897 C 315.36614,546.487 316.27198,597.40604 325.52833,620.9763 C 334.78468,644.54656 352.39158,640.76805 367.24765,641.14141 C 382.10372,641.51477 399.60543,642.78254 409.83421,619.70197 C 420.06299,596.62141 423.01886,549.19251 423.76027,513.62448 C 424.50167,478.05645 419.49813,428.73098 410.24178,405.16072 C 400.98542,381.59046 387.47624,383.7754 372.62017,383.40204 C 357.7641,383.02868 344.3601,380.16736 334.13131,403.24792 C 323.90254,426.32849 316.84896,475.35094 316.10755,510.91897 z "
         style="fill:#f05649;fill-opacity:1;fill-rule:nonzero;stroke:#130e08;stroke-width:0.45510474;stroke-miterlimit:4;stroke-opacity:1" />
      <g
         id="g4403">
        <g
           id="g1892"
           transform="matrix(-0.800114,-2.010836e-2,-1.733403e-2,0.831577,575.5869,55.89477)">
          <path
             d="M 346.70847 292.66275 A 108.09146 96.874428 0 1 1  130.52554,292.66275 A 108.09146 96.874428 0 1 1  346.70847 292.66275 z"
             sodipodi:ry="96.874428"
             sodipodi:rx="108.09146"
             sodipodi:cy="292.66275"
             sodipodi:cx="238.617"
             id="path1871"
             style="opacity:1;fill:#f0af49;fill-opacity:1;fill-rule:nonzero;stroke:#130e08;stroke-width:0.5;stroke-miterlimit:4;stroke-dasharray:none;stroke-opacity:1"
             sodipodi:type="arc" />
          <path
             sodipodi:nodetypes="csssc"
             id="path1873"
             d="M 283.64249,334.73216 C 283.64249,337.7438 266.18857,365.22096 243.58607,365.22096 C 220.98356,365.22096 201.74935,337.7438 201.74935,334.73216 C 201.74935,331.7205 220.98356,354.30918 243.58607,354.30918 C 266.18857,354.30918 283.64249,331.7205 283.64249,334.73216 z "
             style="fill:red;fill-opacity:1;fill-rule:nonzero;stroke:#130e08;stroke-width:0.18531379;stroke-miterlimit:4;stroke-opacity:1" />
          <path
             transform="matrix(0.852666,0,0,0.718095,598.3887,102.3895)"
             d="M -395.65556 283.48517 A 20.394615 14.276231 0 1 1  -436.44479,283.48517 A 20.394615 14.276231 0 1 1  -395.65556 283.48517 z"
             sodipodi:ry="14.276231"
             sodipodi:rx="20.394615"
             sodipodi:cy="283.48517"
             sodipodi:cx="-416.05017"
             id="path1876"
             style="opacity:1;fill:#f60;fill-opacity:1;fill-rule:nonzero;stroke:#130e08;stroke-width:0.5;stroke-miterlimit:4;stroke-dasharray:none;stroke-opacity:1"
             sodipodi:type="arc" />
          <g
             transform="matrix(0.521288,0,0,0.487465,312.4223,139.9164)"
             id="g1882">
            <path
               sodipodi:type="arc"
               style="opacity:1;fill:white;fill-opacity:1;fill-rule:nonzero;stroke:#130e08;stroke-width:0.5;stroke-miterlimit:4;stroke-dasharray:none;stroke-opacity:1"
               id="path1878"
               sodipodi:cx="-211.08427"
               sodipodi:cy="261.05109"
               sodipodi:rx="29.572193"
               sodipodi:ry="71.381157"
               d="M -181.51208 261.05109 A 29.572193 71.381157 0 1 1  -240.65647,261.05109 A 29.572193 71.381157 0 1 1  -181.51208 261.05109 z" />
            <path
               sodipodi:type="arc"
               style="opacity:1;fill:black;fill-opacity:1;fill-rule:nonzero;stroke:#130e08;stroke-width:0.5;stroke-miterlimit:4;stroke-dasharray:none;stroke-opacity:1"
               id="path1880"
               sodipodi:cx="-262.0708"
               sodipodi:cy="418.08963"
               sodipodi:rx="15.295962"
               sodipodi:ry="26.513"
               d="M -246.77484 418.08963 A 15.295962 26.513 0 1 1  -277.36676,418.08963 A 15.295962 26.513 0 1 1  -246.77484 418.08963 z"
               transform="translate(38.74977,-130.5255)" />
          </g>
          <g
             id="g1886"
             transform="matrix(0.521288,0,0,0.487465,390.4223,139.9164)">
            <path
               d="M -181.51208 261.05109 A 29.572193 71.381157 0 1 1  -240.65647,261.05109 A 29.572193 71.381157 0 1 1  -181.51208 261.05109 z"
               sodipodi:ry="71.381157"
               sodipodi:rx="29.572193"
               sodipodi:cy="261.05109"
               sodipodi:cx="-211.08427"
               id="path1888"
               style="opacity:1;fill:white;fill-opacity:1;fill-rule:nonzero;stroke:#130e08;stroke-width:0.5;stroke-miterlimit:4;stroke-dasharray:none;stroke-opacity:1"
               sodipodi:type="arc" />
            <path
               transform="translate(38.74977,-130.5255)"
               d="M -246.77484 418.08963 A 15.295962 26.513 0 1 1  -277.36676,418.08963 A 15.295962 26.513 0 1 1  -246.77484 418.08963 z"
               sodipodi:ry="26.513"
               sodipodi:rx="15.295962"
               sodipodi:cy="418.08963"
               sodipodi:cx="-262.0708"
               id="path1890"
               style="opacity:1;fill:black;fill-opacity:1;fill-rule:nonzero;stroke:#130e08;stroke-width:0.5;stroke-miterlimit:4;stroke-dasharray:none;stroke-opacity:1"
               sodipodi:type="arc" />
          </g>
        </g>
        <path
           style="fill:#f0af49;fill-opacity:1;fill-rule:evenodd;stroke:black;stroke-width:0.81590742px;stroke-linecap:butt;stroke-linejoin:miter;stroke-opacity:1"
           d="M 298.18305,266.79042 C 298.19708,266.1177 298.25005,263.57639 298.28304,261.9935 C 298.32266,260.09282 298.05837,258.92599 298.09457,257.18933 C 298.12077,255.93232 296.36259,254.47681 295.56713,253.82619 C 293.94068,252.49589 292.9733,252.26118 290.69448,252.20391 C 288.21765,252.14166 286.43917,253.19844 284.57423,255.04974 C 284.2269,255.39453 283.79249,255.63003 283.40162,255.92017 C 281.76351,257.13613 280.97859,258.34703 279.26313,260.6156 C 278.21907,261.9963 278.38437,265.52788 277.96554,267.48218 C 277.42013,270.02706 277.84489,273.27031 277.79055,275.8768 C 277.73848,278.3752 277.6864,280.8736 277.63432,283.372 C 277.58571,285.70396 277.92728,288.54552 276.9074,290.55288 C 275.98461,292.36915 275.95995,294.4679 275.91702,296.52729 C 275.87145,298.7134 275.61205,301.04241 276.068,303.13031 C 276.60899,305.60766 278.14341,306.75361 279.12237,308.90641 C 279.82678,310.45547 283.67358,312.02044 284.82916,312.04948 C 287.10648,312.10671 288.70274,310.84669 289.78305,309.77427 C 290.8953,308.67016 291.71701,307.50827 292.44798,306.54163 C 293.05131,305.74376 293.56694,305.20177 293.93404,304.47922"
           id="path1905" />
        <path
           id="path1907"
           d="M 462.20204,270.91253 C 462.21606,270.23981 462.26903,267.6985 462.30203,266.1156 C 462.34165,264.21492 462.65112,263.06252 462.68732,261.32585 C 462.71353,260.06884 464.51093,258.70269 465.32382,258.09249 C 466.98587,256.84484 467.95138,256.65871 470.20524,256.71535 C 472.65494,256.77692 474.36829,257.92145 476.13414,259.864 C 476.46301,260.22578 476.88245,260.48274 477.25662,260.79211 C 478.82469,262.08865 479.55001,263.3375 481.15089,265.68942 C 482.1252,267.12084 481.81554,270.64049 482.14837,272.61368 C 482.58177,275.18316 482.02771,278.4018 481.97338,281.0083 C 481.9213,283.5067 481.86922,286.00509 481.81715,288.50349 C 481.76854,290.83546 481.31331,293.657 482.23777,295.71322 C 483.07423,297.5737 483.01162,299.6715 482.96869,301.73089 C 482.92313,303.917 483.08291,306.25654 482.5459,308.31949 C 481.90874,310.76722 480.34524,311.83532 479.28881,313.93697 C 478.52865,315.44922 474.66315,316.82036 473.52023,316.79164 C 471.26786,316.73503 469.74296,315.39657 468.72005,314.27129 C 467.6669,313.11276 466.90319,311.91103 466.22104,310.90887 C 465.65801,310.08169 465.17103,309.5145 464.83827,308.77436"
           style="fill:#f0af49;fill-opacity:1;fill-rule:evenodd;stroke:black;stroke-width:0.81142628px;stroke-linecap:butt;stroke-linejoin:miter;stroke-opacity:1" />
        <path
           style="fill:none;fill-rule:evenodd;stroke:black;stroke-width:0.81590742px;stroke-linecap:butt;stroke-linejoin:miter;stroke-opacity:1"
           d="M 307.48166,249.92611 C 306.83804,249.23315 306.96944,246.80764 307.00472,245.11469 C 307.03719,243.55737 307.11441,242.00428 306.81001,240.61033 C 306.4445,238.93657 304.00456,237.39733 302.56428,236.60407 C 300.20245,235.30328 298.08441,234.00664 295.42766,232.82514 C 292.13089,231.35901 289.16712,230.74171 285.98333,228.98821 C 280.12727,225.76294 273.80143,223.14712 267.69033,220.42942 C 265.15135,219.3003 261.78774,218.11 260.5787,215.45125"
           id="path1909" />
        <path
           style="fill:none;fill-rule:evenodd;stroke:black;stroke-width:0.81590742px;stroke-linecap:butt;stroke-linejoin:miter;stroke-opacity:1"
           d="M 317.25722,237.87323 C 316.18668,237.39715 314.05318,234.79522 312.1586,233.24562 C 309.91787,231.41289 309.26274,227.34358 308.00037,225.04206 C 306.44139,222.19979 303.69936,219.34191 301.82288,216.78776 C 299.71363,213.91675 298.02192,210.95659 295.94636,207.94109 C 294.1055,205.26656 291.7122,202.39252 290.35206,199.40147 C 290.2357,199.1456 289.97577,198.99207 289.78763,198.78736"
           id="path1911" />
        <path
           style="fill:none;fill-rule:evenodd;stroke:black;stroke-width:0.81590742px;stroke-linecap:butt;stroke-linejoin:miter;stroke-opacity:1"
           d="M 326.0674,230.59552 C 325.83403,230.08235 326.1547,226.40724 326.18613,224.89917 C 326.24238,222.2009 326.29862,219.50264 326.35487,216.80436 C 326.40327,214.48227 326.34049,212.8002 325.61446,210.78646 C 324.68789,208.21646 324.02301,207.30912 321.39373,205.58098 C 319.50844,204.34184 318.38956,200.90744 317.198,199.17627 C 315.16803,196.22699 312.51946,194.21823 311.02052,190.92196 C 310.66043,190.1301 309.57161,189.18103 309.05126,188.47275"
           id="path1913" />
        <path
           style="fill:none;fill-rule:evenodd;stroke:black;stroke-width:0.81590742px;stroke-linecap:butt;stroke-linejoin:miter;stroke-opacity:1"
           d="M 455.97215,256.95758 C 455.14426,255.13698 458.17083,253.56561 458.68083,251.62628 C 459.29395,249.29478 462.86709,246.24431 464.59385,244.87569 C 465.19044,244.40284 465.76854,243.90533 466.35589,243.42015 C 469.30893,240.98076 473.33008,237.48578 476.61463,235.87889 C 479.5986,234.41904 482.76337,230.3894 484.29594,227.37295 C 485.91927,224.17785 488.49169,222.11093 489.96425,218.51645 C 490.08329,218.22587 490.16905,217.92167 490.27146,217.62428"
           id="path1915" />
        <path
           style="fill:none;fill-rule:evenodd;stroke:black;stroke-width:0.81590742px;stroke-linecap:butt;stroke-linejoin:miter;stroke-opacity:1"
           d="M 448.68455,246.57562 C 449.13512,245.4758 451.07054,242.87896 451.12351,240.33764 C 451.19713,236.80606 450.39721,233.64294 450.4706,230.12243 C 450.53966,226.80933 450.41721,223.42437 451.25376,220.24327 C 452.01309,217.35584 453.85561,214.49004 454.6081,211.62859 C 455.2661,209.12645 456.97595,206.76521 457.64898,204.20589 C 457.79797,203.63934 457.68008,202.71368 457.69273,202.10724"
           id="path1917" />
        <path
           style="fill:none;fill-rule:evenodd;stroke:black;stroke-width:0.81590742px;stroke-linecap:butt;stroke-linejoin:miter;stroke-opacity:1"
           d="M 434.53631,233.02159 C 434.87026,231.75166 435.46799,229.86333 435.51419,227.6468 C 435.56348,225.28243 436.81283,222.43251 437.40121,220.1951 C 437.97126,218.02743 439.62326,216.39661 440.39834,214.87105 C 440.59899,214.47614 440.79963,214.08123 441.00027,213.68632 C 441.82269,212.06761 441.54207,208.86562 442.00315,207.1123 C 442.64729,204.66286 443.21977,202.00488 444.74932,199.98216"
           id="path1919" />
        <path
           style="fill:none;fill-rule:evenodd;stroke:black;stroke-width:0.81590742px;stroke-linecap:butt;stroke-linejoin:miter;stroke-opacity:1"
           d="M 418.58852,222.72195 C 417.19803,220.22158 417.2547,217.48034 417.31493,214.59088 C 417.39001,210.98897 417.37432,207.54759 418.11059,204.11211 C 418.6967,201.37732 420.21658,198.42273 421.44619,196.39685 C 422.83245,194.11287 424.10513,190.97863 424.78803,188.38179 C 425.23144,186.69567 425.71296,185.54754 425.74717,183.90642"
           id="path1921" />
        <path
           style="fill:none;fill-rule:evenodd;stroke:black;stroke-width:0.81590742px;stroke-linecap:butt;stroke-linejoin:miter;stroke-opacity:1"
           d="M 402.26478,216.61237 C 402.46998,215.83206 402.3469,212.67306 402.38352,210.91602 C 402.42958,208.70639 399.691,205.97453 398.48251,204.21875 C 397.3788,202.61521 396.57374,198.86747 396.61324,196.97262 C 396.67403,194.05607 395.56321,191.96288 395.62187,189.14861 C 395.67802,186.45502 395.14574,184.2982 395.20118,181.63891 C 395.23577,179.97951 394.78789,178.22168 394.14731,176.81299 C 394.06503,176.63206 394.15564,176.41325 394.15981,176.21338"
           id="path1923" />
        <path
           style="fill:none;fill-rule:evenodd;stroke:black;stroke-width:0.81590742px;stroke-linecap:butt;stroke-linejoin:miter;stroke-opacity:1"
           d="M 382.40448,214.01349 C 382.36592,213.92869 379.30834,213.09768 378.68569,212.4202 C 376.23588,209.75475 373.54951,209.59415 373.63081,205.69394 C 373.69122,202.79579 373.75163,199.89765 373.81204,196.99951 C 373.84746,195.3006 373.88287,193.60169 373.91828,191.90278 C 373.95578,190.10393 373.99328,188.30508 374.03077,186.50623 C 374.07397,184.43419 373.81781,182.87705 373.8548,181.10244 C 373.86339,180.69039 373.67916,180.29812 373.59133,179.89596"
           id="path1925" />
        <path
           style="fill:none;fill-rule:evenodd;stroke:black;stroke-width:0.81590742px;stroke-linecap:butt;stroke-linejoin:miter;stroke-opacity:1"
           d="M 358.98261,216.12454 C 359.00193,215.19748 358.21032,211.63599 358.2547,209.50701 C 358.31928,206.409 358.38386,203.31098 358.44843,200.21297 C 358.52532,196.52456 358.31298,192.86517 358.3912,189.11283 C 358.43069,187.21836 355.95405,185.21371 354.74115,184.22166 C 352.99508,182.79353 350.14767,182.05347 348.17521,180.75703"
           id="path1927" />
        <path
           style="fill:none;fill-rule:evenodd;stroke:black;stroke-width:0.81590742px;stroke-linecap:butt;stroke-linejoin:miter;stroke-opacity:1"
           d="M 341.84446,221.39315 C 340.73125,220.48264 337.05791,217.9569 335.89919,215.84437 C 334.78033,213.8045 335.52081,206.30507 335.57225,203.83756 C 335.58474,203.23794 335.59724,202.63833 335.60974,202.03871 C 335.67505,198.90548 335.45475,195.62845 335.52126,192.43761 C 335.58575,189.34378 334.07698,184.36417 331.67649,183.04207 C 331.48626,182.9373 331.29603,182.83253 331.10581,182.72777"
           id="path1929" />
        <path
           style="fill:none;fill-rule:evenodd;stroke:black;stroke-width:0.81590742px;stroke-linecap:butt;stroke-linejoin:miter;stroke-opacity:1"
           d="M 424.30157,225.56521 C 424.03512,225.41846 424.12005,220.42739 424.15059,218.96218 C 424.22325,215.47609 426.68879,212.6257 428.94725,210.38376 C 431.01611,208.33004 431.6528,205.20273 431.71217,202.35419 C 431.76281,199.92498 432.22648,198.05985 432.71505,195.78016 C 432.79866,195.39008 432.73171,194.98068 432.74005,194.58093"
           id="path1931" />
        <path
           style="fill:none;fill-rule:evenodd;stroke:black;stroke-width:0.81590742px;stroke-linecap:butt;stroke-linejoin:miter;stroke-opacity:1"
           d="M 390.48149,214.21647 C 390.66078,213.37984 390.56296,210.30786 390.60022,208.52013 C 390.66539,205.39392 390.43718,203.86605 389.01942,201.28124 C 387.42215,198.36914 381.70344,197.92037 379.33037,195.3384 C 377.88623,193.76714 378.22924,192.77952 378.2765,190.51248"
           id="path1933" />
        <path
           style="fill:none;fill-rule:evenodd;stroke:black;stroke-width:0.81590742px;stroke-linecap:butt;stroke-linejoin:miter;stroke-opacity:1"
           d="M 408.5735,218.57071 C 407.96923,217.91324 408.44314,210.97901 408.48502,208.96961 C 408.5522,205.74662 409.47938,202.80449 409.54415,199.69731 C 409.55665,199.09769 409.56915,198.49809 409.58164,197.89847 C 409.62193,195.96603 410.23533,194.23059 410.27731,192.21662"
           id="path1935" />
        <path
           style="fill:none;fill-rule:evenodd;stroke:black;stroke-width:0.81590742px;stroke-linecap:butt;stroke-linejoin:miter;stroke-opacity:1"
           d="M 439.92964,237.35664 C 440.0049,233.74595 440.17154,226.24274 442.26761,222.11719 C 443.6395,219.417 444.37263,216.41801 445.89167,214.40918"
           id="path1937" />
        <path
           style="fill:none;fill-rule:evenodd;stroke:black;stroke-width:0.81590742px;stroke-linecap:butt;stroke-linejoin:miter;stroke-opacity:1"
           d="M 321.65918,234.38428 C 321.83454,234.03914 317.79591,225.87642 317.85191,223.1899 C 317.95482,218.25269 318.33623,212.99157 314.08838,209.89686 C 313.2393,209.27827 311.90636,208.84671 310.94652,208.31807"
           id="path1939" />
        <path
           style="fill:none;fill-rule:evenodd;stroke:black;stroke-width:0.81590742px;stroke-linecap:butt;stroke-linejoin:miter;stroke-opacity:1"
           d="M 304.52203,253.45131 C 301.79628,251.46551 297.90385,252.38022 295.69836,247.53023 C 295.4224,246.92336 295.14644,246.31649 294.87047,245.70963 C 293.45583,242.59875 290.73971,241.78918 288.27328,243.74404 C 286.29753,245.31 283.34446,245.11999 281.03042,245.06183"
           id="path1941" />
        <path
           style="fill:none;fill-rule:evenodd;stroke:black;stroke-width:0.81590742px;stroke-linecap:butt;stroke-linejoin:miter;stroke-opacity:1"
           d="M 348.24692,218.85438 C 346.81992,219.9854 347.80792,215.04572 346.91709,213.42159 C 344.15412,208.38423 342.12204,204.08857 345.74349,200.49361 C 346.94624,199.29966 346.42835,195.33068 346.46416,193.61252"
           id="path1943" />
        <g
           transform="matrix(-0.800114,-2.010836e-2,-1.733403e-2,0.831577,575.5869,55.89477)"
           id="g1945">
          <path
             sodipodi:type="arc"
             style="opacity:1;fill:#f0af49;fill-opacity:1;fill-rule:nonzero;stroke:#130e08;stroke-width:0.5;stroke-miterlimit:4;stroke-dasharray:none;stroke-opacity:1"
             id="path1947"
             sodipodi:cx="238.617"
             sodipodi:cy="292.66275"
             sodipodi:rx="108.09146"
             sodipodi:ry="96.874428"
             d="M 346.70847 292.66275 A 108.09146 96.874428 0 1 1  130.52554,292.66275 A 108.09146 96.874428 0 1 1  346.70847 292.66275 z" />
          <path
             style="fill:red;fill-opacity:1;fill-rule:nonzero;stroke:#130e08;stroke-width:0.18531379;stroke-miterlimit:4;stroke-opacity:1"
             d="M 283.64249,334.73216 C 283.64249,337.7438 266.18857,365.22096 243.58607,365.22096 C 220.98356,365.22096 201.74935,337.7438 201.74935,334.73216 C 201.74935,331.7205 220.98356,354.30918 243.58607,354.30918 C 266.18857,354.30918 283.64249,331.7205 283.64249,334.73216 z "
             id="path1949"
             sodipodi:nodetypes="csssc" />
          <path
             sodipodi:type="arc"
             style="opacity:1;fill:#f60;fill-opacity:1;fill-rule:nonzero;stroke:#130e08;stroke-width:0.5;stroke-miterlimit:4;stroke-dasharray:none;stroke-opacity:1"
             id="path1951"
             sodipodi:cx="-416.05017"
             sodipodi:cy="283.48517"
             sodipodi:rx="20.394615"
             sodipodi:ry="14.276231"
             d="M -395.65556 283.48517 A 20.394615 14.276231 0 1 1  -436.44479,283.48517 A 20.394615 14.276231 0 1 1  -395.65556 283.48517 z"
             transform="matrix(0.852666,0,0,0.718095,598.3887,102.3895)" />
          <g
             id="g1953"
             transform="matrix(0.521288,0,0,0.487465,312.4223,139.9164)">
            <path
               d="M -181.51208 261.05109 A 29.572193 71.381157 0 1 1  -240.65647,261.05109 A 29.572193 71.381157 0 1 1  -181.51208 261.05109 z"
               sodipodi:ry="71.381157"
               sodipodi:rx="29.572193"
               sodipodi:cy="261.05109"
               sodipodi:cx="-211.08427"
               id="path1955"
               style="opacity:1;fill:white;fill-opacity:1;fill-rule:nonzero;stroke:#130e08;stroke-width:0.5;stroke-miterlimit:4;stroke-dasharray:none;stroke-opacity:1"
               sodipodi:type="arc" />
            <path
               transform="translate(38.74977,-130.5255)"
               d="M -246.77484 418.08963 A 15.295962 26.513 0 1 1  -277.36676,418.08963 A 15.295962 26.513 0 1 1  -246.77484 418.08963 z"
               sodipodi:ry="26.513"
               sodipodi:rx="15.295962"
               sodipodi:cy="418.08963"
               sodipodi:cx="-262.0708"
               id="path1957"
               style="opacity:1;fill:black;fill-opacity:1;fill-rule:nonzero;stroke:#130e08;stroke-width:0.5;stroke-miterlimit:4;stroke-dasharray:none;stroke-opacity:1"
               sodipodi:type="arc" />
          </g>
          <g
             transform="matrix(0.521288,0,0,0.487465,390.4223,139.9164)"
             id="g1959">
            <path
               sodipodi:type="arc"
               style="opacity:1;fill:white;fill-opacity:1;fill-rule:nonzero;stroke:#130e08;stroke-width:0.5;stroke-miterlimit:4;stroke-dasharray:none;stroke-opacity:1"
               id="path1961"
               sodipodi:cx="-211.08427"
               sodipodi:cy="261.05109"
               sodipodi:rx="29.572193"
               sodipodi:ry="71.381157"
               d="M -181.51208 261.05109 A 29.572193 71.381157 0 1 1  -240.65647,261.05109 A 29.572193 71.381157 0 1 1  -181.51208 261.05109 z" />
            <path
               sodipodi:type="arc"
               style="opacity:1;fill:black;fill-opacity:1;fill-rule:nonzero;stroke:#130e08;stroke-width:0.5;stroke-miterlimit:4;stroke-dasharray:none;stroke-opacity:1"
               id="path1963"
               sodipodi:cx="-262.0708"
               sodipodi:cy="418.08963"
               sodipodi:rx="15.295962"
               sodipodi:ry="26.513"
               d="M -246.77484 418.08963 A 15.295962 26.513 0 1 1  -277.36676,418.08963 A 15.295962 26.513 0 1 1  -246.77484 418.08963 z"
               transform="translate(38.74977,-130.5255)" />
          </g>
        </g>
        <path
           id="path1965"
           d="M 298.18305,266.79042 C 298.19708,266.1177 298.25005,263.57639 298.28304,261.9935 C 298.32266,260.09282 298.05837,258.92599 298.09457,257.18933 C 298.12077,255.93232 296.36259,254.47681 295.56713,253.82619 C 293.94068,252.49589 292.9733,252.26118 290.69448,252.20391 C 288.21765,252.14166 286.43917,253.19844 284.57423,255.04974 C 284.2269,255.39453 283.79249,255.63003 283.40162,255.92017 C 281.76351,257.13613 280.97859,258.34703 279.26313,260.6156 C 278.21907,261.9963 278.38437,265.52788 277.96554,267.48218 C 277.42013,270.02706 277.84489,273.27031 277.79055,275.8768 C 277.73848,278.3752 277.6864,280.8736 277.63432,283.372 C 277.58571,285.70396 277.92728,288.54552 276.9074,290.55288 C 275.98461,292.36915 275.95995,294.4679 275.91702,296.52729 C 275.87145,298.7134 275.61205,301.04241 276.068,303.13031 C 276.60899,305.60766 278.14341,306.75361 279.12237,308.90641 C 279.82678,310.45547 283.67358,312.02044 284.82916,312.04948 C 287.10648,312.10671 288.70274,310.84669 289.78305,309.77427 C 290.8953,308.67016 291.71701,307.50827 292.44798,306.54163 C 293.05131,305.74376 293.56694,305.20177 293.93404,304.47922"
           style="fill:#f0af49;fill-opacity:1;fill-rule:evenodd;stroke:black;stroke-width:0.81590742px;stroke-linecap:butt;stroke-linejoin:miter;stroke-opacity:1" />
        <path
           style="fill:#f0af49;fill-opacity:1;fill-rule:evenodd;stroke:black;stroke-width:0.81142628px;stroke-linecap:butt;stroke-linejoin:miter;stroke-opacity:1"
           d="M 462.20204,270.91253 C 462.21606,270.23981 462.26903,267.6985 462.30203,266.1156 C 462.34165,264.21492 462.65112,263.06252 462.68732,261.32585 C 462.71353,260.06884 464.51093,258.70269 465.32382,258.09249 C 466.98587,256.84484 467.95138,256.65871 470.20524,256.71535 C 472.65494,256.77692 474.36829,257.92145 476.13414,259.864 C 476.46301,260.22578 476.88245,260.48274 477.25662,260.79211 C 478.82469,262.08865 479.55001,263.3375 481.15089,265.68942 C 482.1252,267.12084 481.81554,270.64049 482.14837,272.61368 C 482.58177,275.18316 482.02771,278.4018 481.97338,281.0083 C 481.9213,283.5067 481.86922,286.00509 481.81715,288.50349 C 481.76854,290.83546 481.31331,293.657 482.23777,295.71322 C 483.07423,297.5737 483.01162,299.6715 482.96869,301.73089 C 482.92313,303.917 483.08291,306.25654 482.5459,308.31949 C 481.90874,310.76722 480.34524,311.83532 479.28881,313.93697 C 478.52865,315.44922 474.66315,316.82036 473.52023,316.79164 C 471.26786,316.73503 469.74296,315.39657 468.72005,314.27129 C 467.6669,313.11276 466.90319,311.91103 466.22104,310.90887 C 465.65801,310.08169 465.17103,309.5145 464.83827,308.77436"
           id="path1967" />
        <path
           id="path1969"
           d="M 307.48166,249.92611 C 306.83804,249.23315 306.96944,246.80764 307.00472,245.11469 C 307.03719,243.55737 307.11441,242.00428 306.81001,240.61033 C 306.4445,238.93657 304.00456,237.39733 302.56428,236.60407 C 300.20245,235.30328 298.08441,234.00664 295.42766,232.82514 C 292.13089,231.35901 289.16712,230.74171 285.98333,228.98821 C 280.12727,225.76294 273.80143,223.14712 267.69033,220.42942 C 265.15135,219.3003 261.78774,218.11 260.5787,215.45125"
           style="fill:none;fill-rule:evenodd;stroke:black;stroke-width:0.81590742px;stroke-linecap:butt;stroke-linejoin:miter;stroke-opacity:1" />
        <path
           id="path1971"
           d="M 317.25722,237.87323 C 316.18668,237.39715 314.05318,234.79522 312.1586,233.24562 C 309.91787,231.41289 309.26274,227.34358 308.00037,225.04206 C 306.44139,222.19979 303.69936,219.34191 301.82288,216.78776 C 299.71363,213.91675 298.02192,210.95659 295.94636,207.94109 C 294.1055,205.26656 291.7122,202.39252 290.35206,199.40147 C 290.2357,199.1456 289.97577,198.99207 289.78763,198.78736"
           style="fill:none;fill-rule:evenodd;stroke:black;stroke-width:0.81590742px;stroke-linecap:butt;stroke-linejoin:miter;stroke-opacity:1" />
        <path
           id="path1973"
           d="M 326.0674,230.59552 C 325.83403,230.08235 326.1547,226.40724 326.18613,224.89917 C 326.24238,222.2009 326.29862,219.50264 326.35487,216.80436 C 326.40327,214.48227 326.34049,212.8002 325.61446,210.78646 C 324.68789,208.21646 324.02301,207.30912 321.39373,205.58098 C 319.50844,204.34184 318.38956,200.90744 317.198,199.17627 C 315.16803,196.22699 312.51946,194.21823 311.02052,190.92196 C 310.66043,190.1301 309.57161,189.18103 309.05126,188.47275"
           style="fill:none;fill-rule:evenodd;stroke:black;stroke-width:0.81590742px;stroke-linecap:butt;stroke-linejoin:miter;stroke-opacity:1" />
        <path
           id="path1975"
           d="M 455.97215,256.95758 C 455.14426,255.13698 458.17083,253.56561 458.68083,251.62628 C 459.29395,249.29478 462.86709,246.24431 464.59385,244.87569 C 465.19044,244.40284 465.76854,243.90533 466.35589,243.42015 C 469.30893,240.98076 473.33008,237.48578 476.61463,235.87889 C 479.5986,234.41904 482.76337,230.3894 484.29594,227.37295 C 485.91927,224.17785 488.49169,222.11093 489.96425,218.51645 C 490.08329,218.22587 490.16905,217.92167 490.27146,217.62428"
           style="fill:none;fill-rule:evenodd;stroke:black;stroke-width:0.81590742px;stroke-linecap:butt;stroke-linejoin:miter;stroke-opacity:1" />
        <path
           id="path1977"
           d="M 448.68455,246.57562 C 449.13512,245.4758 451.07054,242.87896 451.12351,240.33764 C 451.19713,236.80606 450.39721,233.64294 450.4706,230.12243 C 450.53966,226.80933 450.41721,223.42437 451.25376,220.24327 C 452.01309,217.35584 453.85561,214.49004 454.6081,211.62859 C 455.2661,209.12645 456.97595,206.76521 457.64898,204.20589 C 457.79797,203.63934 457.68008,202.71368 457.69273,202.10724"
           style="fill:none;fill-rule:evenodd;stroke:black;stroke-width:0.81590742px;stroke-linecap:butt;stroke-linejoin:miter;stroke-opacity:1" />
        <path
           id="path1979"
           d="M 434.53631,233.02159 C 434.87026,231.75166 435.46799,229.86333 435.51419,227.6468 C 435.56348,225.28243 436.81283,222.43251 437.40121,220.1951 C 437.97126,218.02743 439.62326,216.39661 440.39834,214.87105 C 440.59899,214.47614 440.79963,214.08123 441.00027,213.68632 C 441.82269,212.06761 441.54207,208.86562 442.00315,207.1123 C 442.64729,204.66286 443.21977,202.00488 444.74932,199.98216"
           style="fill:none;fill-rule:evenodd;stroke:black;stroke-width:0.81590742px;stroke-linecap:butt;stroke-linejoin:miter;stroke-opacity:1" />
        <path
           id="path1981"
           d="M 418.58852,222.72195 C 417.19803,220.22158 417.2547,217.48034 417.31493,214.59088 C 417.39001,210.98897 417.37432,207.54759 418.11059,204.11211 C 418.6967,201.37732 420.21658,198.42273 421.44619,196.39685 C 422.83245,194.11287 424.10513,190.97863 424.78803,188.38179 C 425.23144,186.69567 425.71296,185.54754 425.74717,183.90642"
           style="fill:none;fill-rule:evenodd;stroke:black;stroke-width:0.81590742px;stroke-linecap:butt;stroke-linejoin:miter;stroke-opacity:1" />
        <path
           id="path1983"
           d="M 402.26478,216.61237 C 402.46998,215.83206 402.3469,212.67306 402.38352,210.91602 C 402.42958,208.70639 399.691,205.97453 398.48251,204.21875 C 397.3788,202.61521 396.57374,198.86747 396.61324,196.97262 C 396.67403,194.05607 395.56321,191.96288 395.62187,189.14861 C 395.67802,186.45502 395.14574,184.2982 395.20118,181.63891 C 395.23577,179.97951 394.78789,178.22168 394.14731,176.81299 C 394.06503,176.63206 394.15564,176.41325 394.15981,176.21338"
           style="fill:none;fill-rule:evenodd;stroke:black;stroke-width:0.81590742px;stroke-linecap:butt;stroke-linejoin:miter;stroke-opacity:1" />
        <path
           id="path1985"
           d="M 382.40448,214.01349 C 382.36592,213.92869 379.30834,213.09768 378.68569,212.4202 C 376.23588,209.75475 373.54951,209.59415 373.63081,205.69394 C 373.69122,202.79579 373.75163,199.89765 373.81204,196.99951 C 373.84746,195.3006 373.88287,193.60169 373.91828,191.90278 C 373.95578,190.10393 373.99328,188.30508 374.03077,186.50623 C 374.07397,184.43419 373.81781,182.87705 373.8548,181.10244 C 373.86339,180.69039 373.67916,180.29812 373.59133,179.89596"
           style="fill:none;fill-rule:evenodd;stroke:black;stroke-width:0.81590742px;stroke-linecap:butt;stroke-linejoin:miter;stroke-opacity:1" />
        <path
           id="path1987"
           d="M 358.98261,216.12454 C 359.00193,215.19748 358.21032,211.63599 358.2547,209.50701 C 358.31928,206.409 358.38386,203.31098 358.44843,200.21297 C 358.52532,196.52456 358.31298,192.86517 358.3912,189.11283 C 358.43069,187.21836 355.95405,185.21371 354.74115,184.22166 C 352.99508,182.79353 350.14767,182.05347 348.17521,180.75703"
           style="fill:none;fill-rule:evenodd;stroke:black;stroke-width:0.81590742px;stroke-linecap:butt;stroke-linejoin:miter;stroke-opacity:1" />
        <path
           id="path1989"
           d="M 341.84446,221.39315 C 340.73125,220.48264 337.05791,217.9569 335.89919,215.84437 C 334.78033,213.8045 335.52081,206.30507 335.57225,203.83756 C 335.58474,203.23794 335.59724,202.63833 335.60974,202.03871 C 335.67505,198.90548 335.45475,195.62845 335.52126,192.43761 C 335.58575,189.34378 334.07698,184.36417 331.67649,183.04207 C 331.48626,182.9373 331.29603,182.83253 331.10581,182.72777"
           style="fill:none;fill-rule:evenodd;stroke:black;stroke-width:0.81590742px;stroke-linecap:butt;stroke-linejoin:miter;stroke-opacity:1" />
        <path
           id="path1991"
           d="M 424.30157,225.56521 C 424.03512,225.41846 424.12005,220.42739 424.15059,218.96218 C 424.22325,215.47609 426.68879,212.6257 428.94725,210.38376 C 431.01611,208.33004 431.6528,205.20273 431.71217,202.35419 C 431.76281,199.92498 432.22648,198.05985 432.71505,195.78016 C 432.79866,195.39008 432.73171,194.98068 432.74005,194.58093"
           style="fill:none;fill-rule:evenodd;stroke:black;stroke-width:0.81590742px;stroke-linecap:butt;stroke-linejoin:miter;stroke-opacity:1" />
        <path
           id="path1993"
           d="M 390.48149,214.21647 C 390.66078,213.37984 390.56296,210.30786 390.60022,208.52013 C 390.66539,205.39392 390.43718,203.86605 389.01942,201.28124 C 387.42215,198.36914 381.70344,197.92037 379.33037,195.3384 C 377.88623,193.76714 378.22924,192.77952 378.2765,190.51248"
           style="fill:none;fill-rule:evenodd;stroke:black;stroke-width:0.81590742px;stroke-linecap:butt;stroke-linejoin:miter;stroke-opacity:1" />
        <path
           id="path1995"
           d="M 408.5735,218.57071 C 407.96923,217.91324 408.44314,210.97901 408.48502,208.96961 C 408.5522,205.74662 409.47938,202.80449 409.54415,199.69731 C 409.55665,199.09769 409.56915,198.49809 409.58164,197.89847 C 409.62193,195.96603 410.23533,194.23059 410.27731,192.21662"
           style="fill:none;fill-rule:evenodd;stroke:black;stroke-width:0.81590742px;stroke-linecap:butt;stroke-linejoin:miter;stroke-opacity:1" />
        <path
           id="path1997"
           d="M 439.92964,237.35664 C 440.0049,233.74595 440.17154,226.24274 442.26761,222.11719 C 443.6395,219.417 444.37263,216.41801 445.89167,214.40918"
           style="fill:none;fill-rule:evenodd;stroke:black;stroke-width:0.81590742px;stroke-linecap:butt;stroke-linejoin:miter;stroke-opacity:1" />
        <path
           id="path1999"
           d="M 321.65918,234.38428 C 321.83454,234.03914 317.79591,225.87642 317.85191,223.1899 C 317.95482,218.25269 318.33623,212.99157 314.08838,209.89686 C 313.2393,209.27827 311.90636,208.84671 310.94652,208.31807"
           style="fill:none;fill-rule:evenodd;stroke:black;stroke-width:0.81590742px;stroke-linecap:butt;stroke-linejoin:miter;stroke-opacity:1" />
        <path
           id="path2001"
           d="M 304.52203,253.45131 C 301.79628,251.46551 297.90385,252.38022 295.69836,247.53023 C 295.4224,246.92336 295.14644,246.31649 294.87047,245.70963 C 293.45583,242.59875 290.73971,241.78918 288.27328,243.74404 C 286.29753,245.31 283.34446,245.11999 281.03042,245.06183"
           style="fill:none;fill-rule:evenodd;stroke:black;stroke-width:0.81590742px;stroke-linecap:butt;stroke-linejoin:miter;stroke-opacity:1" />
        <path
           id="path2003"
           d="M 348.24692,218.85438 C 346.81992,219.9854 347.80792,215.04572 346.91709,213.42159 C 344.15412,208.38423 342.12204,204.08857 345.74349,200.49361 C 346.94624,199.29966 346.42835,195.33068 346.46416,193.61252"
           style="fill:none;fill-rule:evenodd;stroke:black;stroke-width:0.81590742px;stroke-linecap:butt;stroke-linejoin:miter;stroke-opacity:1" />
        <path
           style="fill:#f0af49;fill-opacity:1;fill-rule:evenodd;stroke:black;stroke-width:0.53375548px;stroke-linecap:butt;stroke-linejoin:miter;stroke-opacity:1"
           d="M 354.51079,369.20414 C 353.91514,371.44913 354.43513,372.83385 354.39143,374.93035 C 354.36224,376.33054 354.75259,377.82359 354.29919,379.35514 C 354.17301,379.78138 354.09151,380.21798 353.98767,380.64941 C 353.573,382.37221 353.62657,384.32237 353.58934,386.10817 C 353.54328,388.31786 353.2115,390.58398 353.16388,392.86836 C 353.11703,395.11585 355.06929,395.75686 356.48983,397.11864 C 358.36635,398.91753 362.1558,398.56314 364.71019,398.62733 C 366.98538,398.68451 369.26055,398.74169 371.53571,398.79887 C 373.52649,398.8489 375.51727,398.89893 377.50804,398.94897 C 379.49881,398.999 381.48959,399.04903 383.48037,399.09906 C 386.0618,399.16394 389.23399,397.48442 390.09744,395.6195 C 390.90604,393.87303 391.81238,392.78948 393.03906,391.0059 C 394.31098,389.15654 394.18862,387.19841 393.153,385.53997 C 392.31883,384.20415 391.19507,383.9142 391.23818,381.84599 C 391.27074,380.2843 391.30329,378.72261 391.33584,377.16092 C 391.36478,375.77276 391.39371,374.38458 391.42265,372.99641 C 391.4335,372.47585 391.44435,371.95529 391.4552,371.43471"
           id="path2067" />
      </g>
      <g
         id="g4466">
        <path
           style="fill:#f05649;fill-opacity:1;fill-rule:nonzero;stroke:#130e08;stroke-width:0.31801799;stroke-miterlimit:4;stroke-opacity:1"
           d="M 579.31823,267.76824 C 594.39401,269.63838 573.88752,415.75567 539.85187,449.88072 C 506.14232,449.88072 438.69771,460.8655 416.59108,456.65754 C 394.48446,452.44956 399.26134,440.43784 399.26134,434.02128 C 399.26134,427.60469 397.74143,420.24268 419.84805,416.03471 C 441.95467,411.82673 487.68784,410.7728 521.39739,410.7728 C 555.10693,410.7728 543.30629,258.83182 565.41291,263.03981 C 587.51954,267.24779 579.31823,261.35164 579.31823,267.76824 z "
           id="path4370"
           sodipodi:nodetypes="ccsssssc" />
        <g
           id="g4396">
          <g
             transform="matrix(1.503264,0,0,1.97531,-286.4099,-261.1871)"
             id="g4389">
            <rect
               style="opacity:1;fill:black;fill-opacity:1;fill-rule:nonzero;stroke:#130e08;stroke-width:0.57925278;stroke-miterlimit:4;stroke-dasharray:none;stroke-opacity:1"
               id="rect4383"
               width="50.629612"
               height="16.220024"
               x="545.76355"
               y="254.34091"
               rx="5.3311334" />
            <path
               sodipodi:type="arc"
               style="opacity:1;fill:black;fill-opacity:1;fill-rule:nonzero;stroke:#130e08;stroke-width:0.5;stroke-miterlimit:4;stroke-dasharray:none;stroke-opacity:1"
               id="path4385"
               sodipodi:cx="533.75104"
               sodipodi:cy="227.0352"
               sodipodi:rx="7.1435103"
               sodipodi:ry="14.387633"
               d="M 540.89455 227.0352 A 7.1435103 14.387633 0 1 1  526.60753,227.0352 A 7.1435103 14.387633 0 1 1  540.89455 227.0352 z"
               transform="translate(60.37995,34.40959)" />
            <path
               transform="translate(14.37995,34.40959)"
               d="M 540.89455 227.0352 A 7.1435103 14.387633 0 1 1  526.60753,227.0352 A 7.1435103 14.387633 0 1 1  540.89455 227.0352 z"
               sodipodi:ry="14.387633"
               sodipodi:rx="7.1435103"
               sodipodi:cy="227.0352"
               sodipodi:cx="533.75104"
               id="path4387"
               style="opacity:1;fill:black;fill-opacity:1;fill-rule:nonzero;stroke:#130e08;stroke-width:0.5;stroke-miterlimit:4;stroke-dasharray:none;stroke-opacity:1"
               sodipodi:type="arc" />
          </g>
          <path
             sodipodi:nodetypes="csssssssssssssssssssssssssssssssssssssc"
             id="path4394"
             d="M 589.46537,241.35156 C 589.25491,242.19806 589.51689,242.99974 589.8259,244.2358 C 590.02242,245.02187 589.8259,246.12471 589.8259,246.93977 C 589.8259,248.05184 588.6136,249.07817 587.84299,249.46347 C 586.20285,250.28354 583.67251,248.99451 582.61532,248.20162 C 581.96862,247.71659 581.53373,246.09644 581.53373,245.31738 C 581.53373,244.05553 581.53373,242.79368 581.53373,241.53183 C 581.53373,240.44215 581.53373,243.20969 581.53373,243.87527 C 581.53373,244.89677 581.53373,245.91827 581.53373,246.93977 C 581.53373,248.38783 580.84778,249.24809 579.91135,250.18453 C 579.40245,250.69342 577.22652,248.58129 576.84685,248.20162 C 575.89497,247.24974 575.36623,245.70419 575.0442,244.41606 C 574.85419,243.656 574.86394,242.85607 574.86394,242.07262 C 574.86394,240.99103 574.86394,244.2358 574.86394,245.31738 C 574.86394,246.81959 574.86394,248.32179 574.86394,249.824 C 574.86394,251.28098 573.06676,250.86462 572.15997,250.18453 C 571.25632,249.50679 570.6281,248.92318 569.81653,247.84109 C 568.99617,246.74728 568.55467,245.88639 568.55467,244.41606 C 568.55467,243.47577 568.55467,240.17206 568.55467,242.79368 C 568.55467,244.11562 568.55467,245.43756 568.55467,246.7595 C 568.55467,248.32747 568.14817,249.57659 566.93229,250.18453 C 565.74428,250.77854 564.45908,250.2224 563.68753,249.64374 C 562.64761,248.8638 562.51511,248.01854 562.24541,246.93977 C 561.9193,245.63533 561.88488,244.52673 561.88488,243.15421 C 561.88488,241.24875 561.88488,243.59166 561.88488,244.2358 C 561.88488,245.63128 561.70462,246.84338 561.70462,248.20162 C 561.70462,249.09047 560.20274,250.38438 559.54144,251.26612 C 558.66082,252.44028 557.31063,251.20301 556.11641,250.72532 C 555.00994,250.28273 554.6743,248.44466 554.6743,247.48056 C 554.6743,246.2788 554.6743,245.07703 554.6743,243.87527 C 554.6743,242.70018 554.70183,241.65703 555.03483,240.99103 C 555.21611,240.62847 559.6259,240.99103 560.44276,240.99103 C 561.85167,240.99103 563.15872,241.1713 564.58885,241.1713 C 566.57176,241.1713 568.55467,241.1713 570.53758,241.1713 C 571.9797,241.1713 573.42182,241.1713 574.86394,241.1713 C 576.24597,241.1713 577.62799,241.1713 579.01002,241.1713 C 580.69249,241.1713 582.37496,241.1713 584.05743,241.1713 C 584.98641,241.1713 585.63668,241.58768 586.58114,241.35156 C 587.26112,241.18157 588.81227,241.44486 589.46537,241.35156 z "
             style="fill:#f0af49;fill-opacity:1;fill-rule:evenodd;stroke:black;stroke-width:1px;stroke-linecap:butt;stroke-linejoin:miter;stroke-opacity:1" />
        </g>
      </g>
      <g
         transform="matrix(-0.804769,0,0,1,665.5024,0)"
         id="g4475">
        <path
           sodipodi:nodetypes="ccsssssc"
           id="path4477"
           d="M 579.31823,267.76824 C 594.39401,269.63838 573.88752,415.75567 539.85187,449.88072 C 506.14232,449.88072 438.69771,460.8655 416.59108,456.65754 C 394.48446,452.44956 399.26134,440.43784 399.26134,434.02128 C 399.26134,427.60469 397.74143,420.24268 419.84805,416.03471 C 441.95467,411.82673 487.68784,410.7728 521.39739,410.7728 C 555.10693,410.7728 543.30629,258.83182 565.41291,263.03981 C 587.51954,267.24779 579.31823,261.35164 579.31823,267.76824 z "
           style="fill:#f05649;fill-opacity:1;fill-rule:nonzero;stroke:#130e08;stroke-width:0.31801799;stroke-miterlimit:4;stroke-opacity:1" />
        <g
           id="g4479">
          <g
             id="g4481"
             transform="matrix(1.503264,0,0,1.97531,-286.4099,-261.1871)">
            <rect
               rx="5.3311334"
               y="254.34091"
               x="545.76355"
               height="16.220024"
               width="50.629612"
               id="rect4483"
               style="opacity:1;fill:black;fill-opacity:1;fill-rule:nonzero;stroke:#130e08;stroke-width:0.57925278;stroke-miterlimit:4;stroke-dasharray:none;stroke-opacity:1" />
            <path
               transform="translate(60.37995,34.40959)"
               d="M 540.89455 227.0352 A 7.1435103 14.387633 0 1 1  526.60753,227.0352 A 7.1435103 14.387633 0 1 1  540.89455 227.0352 z"
               sodipodi:ry="14.387633"
               sodipodi:rx="7.1435103"
               sodipodi:cy="227.0352"
               sodipodi:cx="533.75104"
               id="path4485"
               style="opacity:1;fill:black;fill-opacity:1;fill-rule:nonzero;stroke:#130e08;stroke-width:0.5;stroke-miterlimit:4;stroke-dasharray:none;stroke-opacity:1"
               sodipodi:type="arc" />
            <path
               sodipodi:type="arc"
               style="opacity:1;fill:black;fill-opacity:1;fill-rule:nonzero;stroke:#130e08;stroke-width:0.5;stroke-miterlimit:4;stroke-dasharray:none;stroke-opacity:1"
               id="path4487"
               sodipodi:cx="533.75104"
               sodipodi:cy="227.0352"
               sodipodi:rx="7.1435103"
               sodipodi:ry="14.387633"
               d="M 540.89455 227.0352 A 7.1435103 14.387633 0 1 1  526.60753,227.0352 A 7.1435103 14.387633 0 1 1  540.89455 227.0352 z"
               transform="translate(14.37995,34.40959)" />
          </g>
          <path
             style="fill:#f0af49;fill-opacity:1;fill-rule:evenodd;stroke:black;stroke-width:1px;stroke-linecap:butt;stroke-linejoin:miter;stroke-opacity:1"
             d="M 589.46537,241.35156 C 589.25491,242.19806 589.51689,242.99974 589.8259,244.2358 C 590.02242,245.02187 589.8259,246.12471 589.8259,246.93977 C 589.8259,248.05184 588.6136,249.07817 587.84299,249.46347 C 586.20285,250.28354 583.67251,248.99451 582.61532,248.20162 C 581.96862,247.71659 581.53373,246.09644 581.53373,245.31738 C 581.53373,244.05553 581.53373,242.79368 581.53373,241.53183 C 581.53373,240.44215 581.53373,243.20969 581.53373,243.87527 C 581.53373,244.89677 581.53373,245.91827 581.53373,246.93977 C 581.53373,248.38783 580.84778,249.24809 579.91135,250.18453 C 579.40245,250.69342 577.22652,248.58129 576.84685,248.20162 C 575.89497,247.24974 575.36623,245.70419 575.0442,244.41606 C 574.85419,243.656 574.86394,242.85607 574.86394,242.07262 C 574.86394,240.99103 574.86394,244.2358 574.86394,245.31738 C 574.86394,246.81959 574.86394,248.32179 574.86394,249.824 C 574.86394,251.28098 573.06676,250.86462 572.15997,250.18453 C 571.25632,249.50679 570.6281,248.92318 569.81653,247.84109 C 568.99617,246.74728 568.55467,245.88639 568.55467,244.41606 C 568.55467,243.47577 568.55467,240.17206 568.55467,242.79368 C 568.55467,244.11562 568.55467,245.43756 568.55467,246.7595 C 568.55467,248.32747 568.14817,249.57659 566.93229,250.18453 C 565.74428,250.77854 564.45908,250.2224 563.68753,249.64374 C 562.64761,248.8638 562.51511,248.01854 562.24541,246.93977 C 561.9193,245.63533 561.88488,244.52673 561.88488,243.15421 C 561.88488,241.24875 561.88488,243.59166 561.88488,244.2358 C 561.88488,245.63128 561.70462,246.84338 561.70462,248.20162 C 561.70462,249.09047 560.20274,250.38438 559.54144,251.26612 C 558.66082,252.44028 557.31063,251.20301 556.11641,250.72532 C 555.00994,250.28273 554.6743,248.44466 554.6743,247.48056 C 554.6743,246.2788 554.6743,245.07703 554.6743,243.87527 C 554.6743,242.70018 554.70183,241.65703 555.03483,240.99103 C 555.21611,240.62847 559.6259,240.99103 560.44276,240.99103 C 561.85167,240.99103 563.15872,241.1713 564.58885,241.1713 C 566.57176,241.1713 568.55467,241.1713 570.53758,241.1713 C 571.9797,241.1713 573.42182,241.1713 574.86394,241.1713 C 576.24597,241.1713 577.62799,241.1713 579.01002,241.1713 C 580.69249,241.1713 582.37496,241.1713 584.05743,241.1713 C 584.98641,241.1713 585.63668,241.58768 586.58114,241.35156 C 587.26112,241.18157 588.81227,241.44486 589.46537,241.35156 z "
             id="path4489"
             sodipodi:nodetypes="csssssssssssssssssssssssssssssssssssssc" />
        </g>
      </g>
    </g>
  </g>
</svg>
